<svg xmlns="http://www.w3.org/2000/svg" width="123" height="123" viewBox="0 0 123 123"><g><g><path fill="#febc48" d="M123 54.098v19.661c0 4.179-3.399 7.577-7.577 7.577h-2.015v39.26a2.403 2.403 0 0 1-2.403 2.403H100.45l-.015-.001-.015.001H89.865a2.403 2.403 0 0 1-2.402-2.402V81.336h-2.05c-4.157 0-7.54-3.364-7.576-7.513-.76.287-1.554.503-2.373.644v4.261a2.402 2.402 0 1 1-4.805 0v-11.57H52.402v51.036h6.726V77.668a2.403 2.403 0 1 1 4.805 0v40.526h6.726V97.307a2.402 2.402 0 1 1 4.805 0v23.29a2.403 2.403 0 0 1-2.402 2.402H49.999a2.403 2.403 0 0 1-2.402-2.402v-46.13a13.033 13.033 0 0 1-2.434-.666c-.022 4.158-3.412 7.535-7.576 7.535h-2.05v39.26A2.403 2.403 0 0 1 33.135 123H22.579l-.014-.001-.015.001H11.994a2.403 2.403 0 0 1-2.402-2.402V81.336H7.577C3.399 81.336 0 77.938 0 73.759V54.098c0-8.712 5.908-16.065 13.926-18.277a11.115 11.115 0 0 1-2.513-7.048v-2.191c0-6.16 5.01-11.17 11.17-11.17 6.158 0 11.168 5.01 11.168 11.17v2.191c0 2.67-.944 5.127-2.514 7.05a19.043 19.043 0 0 1 5.456 2.49v-1.785c0-7.248 5.897-13.146 13.146-13.146h1.551a13.06 13.06 0 0 1-2.98-8.315V13.12C48.41 5.886 54.297 0 61.53 0c7.234 0 13.12 5.887 13.12 13.12v1.948c0 3.153-1.119 6.05-2.98 8.315h1.552c7.249 0 13.146 5.898 13.146 13.146v1.742a19.072 19.072 0 0 1 5.395-2.447 11.114 11.114 0 0 1-2.515-7.051v-2.19c0-6.16 5.01-11.17 11.17-11.17 6.159 0 11.169 5.01 11.169 11.17v2.19c0 2.67-.943 5.126-2.513 7.05C117.092 38.032 123 45.385 123 54.097zM16.217 28.772a6.372 6.372 0 0 0 6.365 6.365 6.372 6.372 0 0 0 6.364-6.365v-2.19a6.371 6.371 0 0 0-6.364-6.365 6.371 6.371 0 0 0-6.365 6.365zm14.516 43.054H14.397v46.368h5.75V84.081c0-.122.012-.243.03-.36v-2.522a2.402 2.402 0 1 1 4.805 0v36.995h5.75zm9.626 1.933v-3.15a13.092 13.092 0 0 1-3.666-9.092V44.59a14.185 14.185 0 0 0-10.489-4.65H18.96c-7.805 0-14.156 6.35-14.156 14.155V73.76a2.776 2.776 0 0 0 2.773 2.772h2.015V56.097a2.403 2.403 0 0 1 4.804 0v10.927h16.336v-3.28a2.402 2.402 0 0 1 4.805 0v12.787h2.05a2.775 2.775 0 0 0 2.772-2.772zm12.857-60.64v1.948c0 4.585 3.73 8.315 8.314 8.315 4.585 0 8.315-3.73 8.315-8.315v-1.948c0-4.585-3.73-8.315-8.315-8.315-4.585 0-8.314 3.73-8.314 8.315zm28.347 23.409c0-4.599-3.742-8.342-8.342-8.342h-9.369v6.565a2.402 2.402 0 0 1-4.804 0v-6.565h-9.21c-4.599 0-8.34 3.743-8.34 8.342v24.989c0 3.822 2.585 7.05 6.099 8.033V36.528a2.402 2.402 0 0 1 4.804 0v25.825H70.66V36.528a2.402 2.402 0 0 1 4.805 0V69.55c3.513-.982 6.099-4.211 6.099-8.033zm12.49-7.756a6.372 6.372 0 0 0 6.365 6.365 6.372 6.372 0 0 0 6.364-6.365v-2.19a6.371 6.371 0 0 0-6.364-6.365 6.371 6.371 0 0 0-6.365 6.365zm14.55 43.054H92.267v46.368h5.75V81.2a2.402 2.402 0 1 1 4.805 0v2.522c.018.119.03.238.03.36v34.113h5.751zm9.592 1.933V54.098c0-7.807-6.35-14.156-14.155-14.156h-7.245a14.187 14.187 0 0 0-10.427 4.586v16.989a13.1 13.1 0 0 1-3.728 9.157v3.085a2.774 2.774 0 0 0 2.772 2.772h2.05V63.745a2.401 2.401 0 0 1 2.403-2.401 2.4 2.4 0 0 1 2.402 2.401v3.279h16.336V56.098a2.403 2.403 0 0 1 4.805 0V76.53h2.015a2.775 2.775 0 0 0 2.772-2.772zm-42.73 14.098a2.42 2.42 0 0 1-.704 1.699 2.424 2.424 0 0 1-1.699.704 2.425 2.425 0 0 1-1.698-.704 2.409 2.409 0 0 1-.704-1.699 2.407 2.407 0 0 1 2.402-2.4 2.41 2.41 0 0 1 1.699.703c.447.446.704 1.066.704 1.697zM63.852 43.73a2.41 2.41 0 0 1-.704 1.698 2.411 2.411 0 0 1-1.699.704 2.416 2.416 0 0 1-1.698-.704 2.42 2.42 0 0 1-.704-1.698c0-.63.257-1.252.704-1.698a2.417 2.417 0 0 1 1.698-.705 2.408 2.408 0 0 1 2.402 2.403z"/></g></g></svg>